<svg xmlns="http://www.w3.org/2000/svg" xmlns:xlink="http://www.w3.org/1999/xlink" version="1.1" x="0px" y="0px" viewBox="0 0 64 80" enable-background="new 0 0 64 64" xml:space="preserve"><g><path d="M37,26v-2h-2v2h-2v-2h-2v2h-2v-2h-2v2c-0.553,0-1,0.447-1,1h-2v2h2v2h-2v2h2v2h-2v2h2c0,0.553,0.447,1,1,1v2h2v-2h2v2h2v-2   h2v2h2v-2c0.553,0,1-0.447,1-1h2v-2h-2v-2h2v-2h-2v-2h2v-2h-2C38,26.447,37.553,26,37,26z M36,36h-8v-8h8V36z"/><rect x="31" y="31" width="2" height="2"/><path d="M62,32c0-3.622-2.81-6.88-7.483-9.341c1.623-5.208,1.182-9.387-1.304-11.872C50.726,8.3,46.547,7.859,41.341,9.483   C38.88,4.809,35.622,2,32,2c-3.622,0-6.88,2.81-9.341,7.483c-5.21-1.624-9.387-1.183-11.872,1.304   c-2.486,2.485-2.927,6.664-1.304,11.872C4.81,25.12,2,28.378,2,32s2.81,6.88,7.483,9.341c-1.623,5.208-1.182,9.387,1.304,11.872   c1.509,1.509,3.64,2.268,6.246,2.268c1.687,0,3.579-0.329,5.624-0.967C25.119,59.189,28.377,62,32,62   c3.623,0,6.881-2.811,9.342-7.486c2.046,0.637,3.938,0.967,5.624,0.967c2.606,0,4.737-0.759,6.246-2.268   c2.486-2.485,2.927-6.664,1.304-11.872C59.19,38.88,62,35.622,62,32z M46.945,10.531c2.073,0,3.742,0.559,4.854,1.67   c1.866,1.866,2.17,5.3,0.898,9.583c-2.326-1.025-5.013-1.874-7.975-2.506c-0.632-2.962-1.481-5.647-2.505-7.974   C43.946,10.791,45.54,10.531,46.945,10.531z M40.285,52.035c-2.11-0.81-4.293-1.924-6.486-3.289   c1.308-0.923,2.61-1.915,3.894-2.992c1.674-0.144,3.296-0.35,4.852-0.614C41.946,47.695,41.179,50.019,40.285,52.035z    M21.455,45.141c1.556,0.265,3.179,0.47,4.852,0.614c1.284,1.077,2.586,2.068,3.894,2.992c-2.194,1.365-4.377,2.479-6.486,3.289   C22.821,50.019,22.054,47.695,21.455,45.141z M23.715,11.965c2.11,0.81,4.293,1.924,6.486,3.289   c-1.308,0.923-2.61,1.915-3.894,2.992c-1.674,0.144-3.296,0.35-4.852,0.614C22.054,16.305,22.821,13.981,23.715,11.965z    M42.545,18.859c-1.556-0.265-3.179-0.47-4.852-0.614c-1.284-1.077-2.586-2.068-3.894-2.992c2.194-1.365,4.377-2.479,6.486-3.289   C41.179,13.981,41.946,16.305,42.545,18.859z M44,32c0,1.663-0.07,3.295-0.196,4.887c-1.045,1.219-2.146,2.425-3.319,3.598   s-2.379,2.274-3.598,3.319C35.295,43.93,33.663,44,32,44s-3.295-0.07-4.887-0.196c-1.219-1.045-2.425-2.146-3.598-3.319   s-2.274-2.379-3.319-3.598C20.07,35.295,20,33.663,20,32s0.07-3.295,0.196-4.887c1.045-1.219,2.146-2.425,3.319-3.598   s2.379-2.274,3.598-3.319C28.705,20.07,30.337,20,32,20s3.295,0.07,4.887,0.196c1.219,1.045,2.425,2.146,3.598,3.319   s2.274,2.379,3.319,3.598C43.93,28.705,44,30.337,44,32z M41.899,22.101c-0.529-0.529-1.069-1.035-1.609-1.54   c0.923,0.127,1.825,0.276,2.707,0.443c0.167,0.882,0.316,1.784,0.443,2.707C42.935,23.17,42.429,22.63,41.899,22.101z    M34.243,18.041C33.502,18.017,32.756,18,32,18s-1.502,0.017-2.243,0.041c0.745-0.568,1.494-1.105,2.243-1.617   C32.749,16.936,33.498,17.474,34.243,18.041z M23.71,20.56c-0.54,0.505-1.08,1.011-1.609,1.54s-1.035,1.069-1.54,1.609   c0.127-0.923,0.276-1.825,0.443-2.707C21.885,20.837,22.787,20.688,23.71,20.56z M18.245,26.308   c-1.077,1.284-2.068,2.586-2.992,3.894c-1.365-2.194-2.479-4.377-3.289-6.486c2.016-0.894,4.34-1.661,6.895-2.26   C18.595,23.012,18.389,24.634,18.245,26.308z M18.041,29.757C18.017,30.498,18,31.244,18,32s0.017,1.502,0.041,2.243   c-0.568-0.745-1.105-1.494-1.617-2.243C16.936,31.251,17.474,30.502,18.041,29.757z M18.245,37.692   c0.144,1.674,0.35,3.296,0.614,4.852c-2.555-0.599-4.878-1.365-6.895-2.26c0.81-2.11,1.924-4.293,3.289-6.486   C16.177,35.106,17.168,36.409,18.245,37.692z M20.56,40.29c0.505,0.54,1.011,1.08,1.54,1.609s1.069,1.035,1.609,1.54   c-0.923-0.127-1.825-0.276-2.707-0.443C20.837,42.115,20.688,41.213,20.56,40.29z M29.757,45.959C30.498,45.983,31.244,46,32,46   s1.502-0.017,2.243-0.041c-0.745,0.568-1.494,1.105-2.243,1.617C31.251,47.064,30.502,46.526,29.757,45.959z M40.29,43.44   c0.54-0.505,1.08-1.011,1.609-1.54s1.035-1.069,1.54-1.609c-0.127,0.923-0.276,1.825-0.443,2.707   C42.115,43.164,41.213,43.312,40.29,43.44z M45.755,37.692c1.077-1.284,2.068-2.586,2.992-3.894   c1.365,2.194,2.479,4.377,3.289,6.486c-2.016,0.894-4.34,1.661-6.895,2.26C45.405,40.988,45.611,39.366,45.755,37.692z    M45.959,34.243C45.983,33.502,46,32.756,46,32s-0.017-1.502-0.041-2.243c0.568,0.745,1.105,1.494,1.617,2.243   C47.064,32.749,46.526,33.498,45.959,34.243z M45.755,26.308c-0.144-1.674-0.35-3.296-0.614-4.852   c2.555,0.599,4.878,1.365,6.895,2.26c-0.81,2.11-1.924,4.293-3.289,6.486C47.823,28.894,46.832,27.591,45.755,26.308z M32,4   c2.768,0,5.351,2.328,7.408,6.165c-2.414,0.942-4.911,2.26-7.408,3.875c-2.497-1.615-4.994-2.934-7.408-3.875   C26.649,6.328,29.232,4,32,4z M12.201,12.201c1.111-1.112,2.78-1.67,4.854-1.67c1.406,0,2.999,0.259,4.729,0.773   c-1.025,2.326-1.873,5.012-2.505,7.974c-2.962,0.632-5.648,1.481-7.975,2.506C10.032,17.501,10.335,14.067,12.201,12.201z M4,32   c0-2.768,2.328-5.351,6.165-7.408c0.942,2.414,2.26,4.911,3.875,7.408c-1.615,2.497-2.934,4.994-3.875,7.408   C6.328,37.351,4,34.768,4,32z M12.201,51.799c-1.866-1.866-2.17-5.3-0.898-9.583c2.326,1.025,5.013,1.874,7.975,2.506   c0.632,2.962,1.481,5.648,2.506,7.975C17.502,53.969,14.067,53.664,12.201,51.799z M32,60c-2.768,0-5.351-2.328-7.408-6.165   c2.414-0.942,4.911-2.26,7.408-3.875c2.497,1.615,4.994,2.934,7.408,3.875C37.351,57.672,34.768,60,32,60z M51.799,51.799   c-1.865,1.867-5.3,2.171-9.583,0.898c1.025-2.327,1.874-5.013,2.506-7.975c2.962-0.632,5.648-1.481,7.975-2.506   C53.968,46.499,53.665,49.933,51.799,51.799z M53.835,39.408c-0.942-2.414-2.26-4.911-3.875-7.408   c1.615-2.497,2.934-4.994,3.875-7.408C57.672,26.649,60,29.232,60,32S57.672,37.351,53.835,39.408z"/><rect x="31" y="7" width="2" height="2"/><rect x="47.971" y="14.029" transform="matrix(0.7071 -0.7071 0.7071 0.7071 3.7159 39.0295)" width="2" height="2"/><rect x="55" y="31" width="2" height="2"/><rect x="47.971" y="47.971" transform="matrix(0.7071 -0.7071 0.7071 0.7071 -20.2843 48.9707)" width="2" height="2"/><rect x="31" y="55" width="2" height="2"/><rect x="14.029" y="47.971" transform="matrix(0.7071 -0.7071 0.7071 0.7071 -30.2255 24.9705)" width="2" height="2"/><rect x="7" y="31" width="2" height="2"/><rect x="14.029" y="14.029" transform="matrix(0.7071 -0.7071 0.7071 0.7071 -6.2253 15.0293)" width="2" height="2"/></g><text x="0" y="79" fill="#000000" font-size="5px" font-weight="bold" font-family="'Helvetica Neue', Helvetica, Arial-Unicode, Arial, Sans-serif">Created by Petai Jantrapoon</text><text x="0" y="84" fill="#000000" font-size="5px" font-weight="bold" font-family="'Helvetica Neue', Helvetica, Arial-Unicode, Arial, Sans-serif">from the Noun Project</text></svg>