 <svg version="1.0" xmlns="http://www.w3.org/2000/svg"  width="64.000000pt" height="38.000000pt" viewBox="0 0 95.000000 103.000000"  preserveAspectRatio="xMidYMid meet">  <g transform="translate(0.000000,103.000000) scale(0.100000,-0.100000)" fill="#000000" stroke="none"> <path d="M383 966 c-142 -67 -233 -248 -233 -466 0 -163 48 -303 135 -394 61 -63 115 -88 200 -93 l70 -4 -55 23 c-197 84 -293 238 -293 468 0 230 98 387 293 467 l55 23 -60 0 c-43 0 -75 -7 -112 -24z"/> <path d="M540 931 c-163 -53 -270 -224 -270 -431 0 -179 85 -340 215 -408 69 -36 178 -38 248 -4 63 32 126 96 166 171 l32 61 -88 0 -88 0 -36 -70 c-20 -39 -34 -70 -32 -70 2 0 26 21 53 46 38 36 55 45 77 42 l28 -3 -48 -52 c-88 -94 -181 -117 -282 -69 -62 28 -109 80 -149 166 -30 62 -31 71 -31 190 0 119 1 128 31 190 17 36 46 83 65 105 69 79 188 107 275 65 49 -24 116 -94 141 -145 14 -30 22 -35 50 -35 l34 0 -32 61 c-40 75 -103 139 -164 169 -50 24 -153 35 -195 21z"/> <path d="M178 867 c-170 -148 -202 -454 -68 -655 36 -54 96 -112 116 -112 4 0 -2 10 -13 22 -35 40 -60 91 -94 188 -28 81 -33 109 -33 190 0 81 5 109 33 190 33 96 58 147 94 188 30 33 7 26 -35 -11z"/> <path d="M548 823 c-14 -4 -11 -12 19 -51 19 -25 39 -57 44 -69 8 -22 14 -23 104 -23 l96 0 -15 28 c-13 26 -99 112 -111 112 -3 0 6 -17 20 -37 32 -49 32 -53 -9 -53 -29 0 -37 6 -64 50 -30 49 -41 54 -84 43z"/> <path d="M611 297 c-5 -12 -25 -44 -44 -69 l-36 -47 30 -6 c18 -4 36 -2 44 5 17 14 60 86 69 118 7 19 4 22 -24 22 -23 0 -33 -6 -39 -23z"/> </g> </svg> 